<svg xmlns="http://www.w3.org/2000/svg" xmlns:xlink="http://www.w3.org/1999/xlink" version="1.1" x="0px" y="0px" viewBox="0 0 100 125" enable-background="new 0 0 100 100" xml:space="preserve"><g><g><ellipse fill="#000000" cx="38.334" cy="27.152" rx="1.057" ry="1.086"/><ellipse fill="#000000" cx="60.881" cy="27.152" rx="1.059" ry="1.086"/><path fill="#000000" d="M81.155,51.309c-1.004-3.179-9.463-18.238-11.136-22.254c-1.673-4.015-6.023-10.375-6.023-10.375    s0-8.03,0-10.039c0-2.008-1.004-11.043-5.355-8.032c-4.35,3.013-1.672,16.064-1.672,16.064s-2.36-0.855-6.694-0.855    c-0.094,0-0.183,0.003-0.275,0.005c-0.092-0.001-0.18-0.005-0.275-0.005c-4.332,0-6.692,0.855-6.692,0.855    s2.677-13.051-1.673-16.064c-4.35-3.011-5.354,6.024-5.354,8.032c0,2.008,0,10.039,0,10.039s-4.351,6.36-6.024,10.375    c-1.672,4.017-10.131,19.076-11.135,22.254c-1.004,3.179-5.689,13.889-2.678,21.585c1.441,3.681,3.208,4.164,3.892,3.486    c1.019-1.012,1.762-23.38,4.479-27.918c-0.215,3.794-3.74,19.722-3.189,33.395c0.25,6.215,3.256,11.097,4.616,12.455    c4.35,4.35,6.697,5.688,6.697,5.688s15.148,0,15.942,0c0.795,0,1.375-1.5,1.375-1.5L50,98.503l0.021-0.003    c0,0,0.581,1.5,1.375,1.5s15.943,0,15.943,0s2.346-1.339,6.696-5.688c1.36-1.358,4.366-6.24,4.616-12.455    c0.551-13.673-2.974-29.601-3.188-33.395C78.178,53,78.921,75.368,79.941,76.38c0.684,0.678,2.451,0.194,3.892-3.486    C86.845,65.197,82.159,54.487,81.155,51.309z M60.525,24.1c1.803,0,3.263,1.203,3.263,3.213s-1.033,3.212-2.836,3.212    c-1.802,0-3.263-1.202-3.263-3.212S58.724,24.1,60.525,24.1z M49.936,25.61c1.837,0,4.373,0.728,4.373,1.629    c0,0.899-1.086,1.628-4.373,1.628c-3.285,0-4.372-0.729-4.372-1.628C45.564,26.337,47.907,25.61,49.936,25.61z M38.689,24.1    c1.803,0,2.836,1.203,2.836,3.213s-1.46,3.212-3.263,3.212c-1.802,0-2.836-1.202-2.836-3.212S36.888,24.1,38.689,24.1z     M76.418,68.758c0,9.058-6.936,27.824-26.128,28.914C29.77,95.488,23.735,79.561,23.735,68.758c0-15.966,9.525-28.91,26.555-28.91    C66.646,39.848,76.418,52.792,76.418,68.758z"/><path fill="#000000" d="M55.63,43.74c-1.945-0.126-3.671,2.089-3.721,2.872c-0.051,0.782,1.636-0.824,3.581-0.698    c1.944,0.124,3.412,1.931,3.462,1.149C59.003,46.28,57.574,43.864,55.63,43.74z"/><path fill="#000000" d="M51.65,52.936c-2.122-0.025-3.868,2.248-3.877,3.024c-0.01,0.776,1.73-0.894,3.852-0.869    c2.12,0.025,3.818,1.737,3.827,0.96C55.463,55.276,53.771,52.961,51.65,52.936z"/><path fill="#000000" d="M68.312,51.203c0.196-0.76-0.752-3.402-2.638-3.89c-1.888-0.488-3.999,1.362-4.195,2.121    c-0.196,0.76,1.762-0.5,3.649-0.012C67.014,49.912,68.115,51.961,68.312,51.203z"/><path fill="#000000" d="M62.926,54.251c-1.938-0.21-3.759,1.926-3.844,2.706c-0.084,0.78,1.671-0.75,3.608-0.54    c1.938,0.209,3.325,2.079,3.409,1.3C66.185,56.937,64.863,54.46,62.926,54.251z"/><path fill="#000000" d="M71.335,59.505c1.63,0.423,2.522,2.419,2.72,1.661c0.196-0.76-0.544-3.347-2.173-3.77    c-1.63-0.421-3.532,1.482-3.729,2.241C67.955,60.397,69.705,59.084,71.335,59.505z"/><path fill="#000000" d="M48.538,46.612c-0.05-0.783-1.775-2.998-3.72-2.872c-1.945,0.124-3.374,2.54-3.323,3.323    c0.05,0.782,1.517-1.025,3.462-1.149C46.902,45.788,48.587,47.394,48.538,46.612z"/><path fill="#000000" d="M37.968,49.45c-0.196-0.76-2.307-2.61-4.194-2.12c-1.887,0.488-2.835,3.128-2.639,3.888    c0.196,0.76,1.297-1.291,3.185-1.779C36.207,48.95,38.166,50.208,37.968,49.45z"/><path fill="#000000" d="M38.324,54.742c-1.838,0.646-2.56,3.358-2.299,4.1c0.259,0.738,1.183-1.396,3.022-2.044    c1.838-0.646,3.896,0.442,3.637-0.297C42.423,55.761,40.163,54.097,38.324,54.742z"/><path fill="#000000" d="M28.139,57.396c-1.63,0.423-2.37,3.01-2.173,3.77c0.196,0.758,1.089-1.238,2.719-1.661    c1.629-0.421,3.378,0.893,3.182,0.133C31.671,58.879,29.768,56.976,28.139,57.396z"/></g></g><text x="0" y="115" fill="#000000" font-size="5px" font-weight="bold" font-family="'Helvetica Neue', Helvetica, Arial-Unicode, Arial, Sans-serif">Created by Nithin Davis Nanthikkara</text><text x="0" y="120" fill="#000000" font-size="5px" font-weight="bold" font-family="'Helvetica Neue', Helvetica, Arial-Unicode, Arial, Sans-serif">from the Noun Project</text></svg>